# xmcd
#
# Track frame offsets:
#	150
#	15357
#	28428
#	41127
#	54230
#	65326
#	77492
#	89008
#	102677
#	117772
#	130465
#	143409
#	154596
#	171002
#	186027
#	199780
#	213257
#	227447
#	238473
#	252700
#	264451
#
# Disc length: 3662 seconds
#
# Revision: 1
# Processed by: cddbd v1.5.2PL0 Copyright (c) Steve Scherf et al.
# Submitted via: audiograbber 1.83.01
#
DISCID=270e4c15
DTITLE=Verschiedene - Marschmusik und Soldatenlieder der Wehrmacht  Vol. 2
DYEAR=2011
DGENRE=Volksmusik
TTITLE0=Horst Wessel Lied
TTITLE1=Deutschland über alles
TTITLE2=Pariser Einzugsmarsch
TTITLE3=Wenn die Trommel sich rührt
TTITLE4=Pepita Marsch
TTITLE5=Schön ist es Soldat zu sein
TTITLE6=Radetzky Marsch
TTITLE7=Lore Lore
TTITLE8=Wir fahren gegen Engelland
TTITLE9=Heut' sind wir wieder unter uns
TTITLE10=Marsch der Legion Condor
TTITLE11=Ein Schifflein sah ich fahren
TTITLE12=Alte Kameraden
TTITLE13=Heut' stechen wir ins blaue Meer
TTITLE14=Badenweiler Marsch
TTITLE15=Lore
TTITLE16=Deutschlands Waffenehre
TTITLE17=Falangisten Hymnen
TTITLE18=Ja grün ist die Heide
TTITLE19=Jawoll das stimmt, jawoll
TTITLE20=Wohlan die Zeit ist gekommen
EXTD=
EXTT0=
EXTT1=
EXTT2=
EXTT3=
EXTT4=
EXTT5=
EXTT6=
EXTT7=
EXTT8=
EXTT9=
EXTT10=
EXTT11=
EXTT12=
EXTT13=
EXTT14=
EXTT15=
EXTT16=
EXTT17=
EXTT18=
EXTT19=
EXTT20=
PLAYORDER=
